<?xml version="1.0" standalone="no"?>
<!DOCTYPE svg PUBLIC "-//W3C//DTD SVG 20010904//EN"
 "http://www.w3.org/TR/2001/REC-SVG-20010904/DTD/svg10.dtd">
<svg version="1.0" xmlns="http://www.w3.org/2000/svg"
 width="1767.000000pt" height="1767.000000pt" viewBox="0 0 1767.000000 1767.000000"
 preserveAspectRatio="xMidYMid meet">
<metadata>
Created by potrace 1.11, written by Peter Selinger 2001-2013
</metadata>
<g transform="translate(0.000000,1767.000000) scale(0.100000,-0.100000)"
fill="#000000" stroke="none">
<path d="M8335 17579 c-1330 -62 -2630 -427 -3790 -1064 -420 -231 -854 -519
-1225 -813 -1710 -1357 -2847 -3280 -3204 -5417 -89 -536 -121 -984 -113
-1582 7 -530 35 -853 117 -1339 270 -1602 967 -3066 2055 -4314 170 -194 651
-671 850 -841 824 -707 1714 -1232 2696 -1592 787 -289 1519 -446 2414 -519
215 -17 1015 -17 1230 0 821 67 1482 200 2200 442 1939 655 3609 1995 4677
3755 1169 1927 1546 4242 1053 6461 -327 1467 -1044 2846 -2061 3964 -151 165
-478 491 -634 631 -1714 1539 -3956 2336 -6265 2228z"/>
</g>
</svg>
