<svg xmlns="http://www.w3.org/2000/svg" width="276" height="44" viewBox="0 0 276 44"><path fill="none" d="M0 0h276v44H0z"/><g fill="#535353"><path d="M47.1 21.5c-.9 0-1.5.3-2 .9s-.7 1.5-.7 2.5c0 1.1.2 2 .7 2.6s1.2.9 2.1.9c.4 0 .8 0 1.1-.1.4-.1.7-.2 1.1-.3v1.3c-.7.3-1.5.4-2.4.4-1.3 0-2.4-.4-3.1-1.2-.7-.8-1.1-2-1.1-3.5 0-1 .2-1.8.5-2.5s.9-1.3 1.5-1.6c.7-.4 1.4-.6 2.3-.6.9 0 1.8.2 2.6.6l-.6 1.1c-.3-.1-.6-.3-1-.4-.3-.1-.6-.1-1-.1zM57.3 29.5h-1.5v-4.3c0-.5-.1-.9-.3-1.2-.2-.3-.6-.4-1-.4-.6 0-1.1.2-1.4.6-.3.4-.4 1-.4 1.9v3.4h-1.5v-9.8h1.5v2.5c0 .4 0 .8-.1 1.3h.1c.2-.3.5-.6.8-.8.4-.2.8-.3 1.3-.3 1.7 0 2.5.8 2.5 2.5v4.6zM62.3 29.6c-1.1 0-1.9-.3-2.5-.9-.6-.6-.9-1.5-.9-2.6s.3-2 .8-2.7c.6-.6 1.3-1 2.3-1 .9 0 1.6.3 2.2.8.5.6.8 1.3.8 2.3v.8h-4.6c0 .7.2 1.2.5 1.6s.8.5 1.4.5c.4 0 .8 0 1.1-.1.4-.1.7-.2 1.1-.4v1.2c-.4.2-.7.3-1.1.4-.2.1-.6.1-1.1.1zm-.2-6c-.5 0-.8.1-1.1.4s-.5.7-.5 1.3h3.1c0-.6-.1-1-.4-1.3s-.7-.4-1.1-.4zM69.5 29.6c-1 0-1.8-.3-2.4-.9-.5-.6-.8-1.5-.8-2.6 0-1.2.3-2.1.9-2.7s1.4-.9 2.5-.9c.7 0 1.4.1 2 .4l-.5 1.1c-.6-.2-1.1-.4-1.5-.4-1.2 0-1.8.8-1.8 2.4 0 .8.1 1.4.4 1.8s.7.6 1.3.6c.7 0 1.3-.2 1.9-.5v1.3c-.3.2-.5.3-.8.3-.4.1-.8.1-1.2.1zM74.5 25.8l.8-1 2.1-2.2h1.7l-2.8 3 3 4h-1.7l-2.2-3-.8.7v2.4h-1.5v-9.8h1.5v4.8l-.1 1.1zM89.9 26c0 1.1-.3 2-.9 2.7-.6.6-1.4 1-2.4 1-.6 0-1.2-.1-1.7-.4-.5-.3-.9-.7-1.1-1.3-.3-.5-.4-1.2-.4-1.9 0-1.1.3-2 .9-2.6.6-.6 1.4-.9 2.4-.9s1.8.3 2.4 1c.5.5.8 1.3.8 2.4zm-5.1 0c0 1.6.6 2.4 1.8 2.4 1.2 0 1.8-.8 1.8-2.4 0-1.6-.6-2.4-1.8-2.4-.6 0-1.1.2-1.3.6-.3.5-.5 1.1-.5 1.8zM96.5 29.5l-.2-.9h-.1c-.2.3-.5.6-.9.8s-.8.3-1.3.3c-.8 0-1.5-.2-1.9-.6-.4-.4-.6-1.1-.6-1.9v-4.5H93V27c0 .5.1.9.3 1.2.2.3.6.4 1 .4.6 0 1.1-.2 1.4-.6.3-.4.4-1 .4-1.9v-3.5h1.5v6.9h-1.1zM102.3 28.4c.4 0 .7-.1 1.1-.2v1.1c-.2.1-.4.1-.6.2-.3 0-.5.1-.8.1-1.4 0-2.1-.7-2.1-2.2v-3.7H99V23l1-.5.5-1.5h.9v1.5h2v1.1h-2v3.7c0 .4.1.6.3.8.1.3.3.3.6.3zM113.8 29.5l-.9-3.2c-.1-.3-.3-1.1-.6-2.4h-.1c-.2 1.1-.4 1.9-.6 2.4l-.9 3.2h-1.6l-1.9-6.9h1.5l.9 3.4c.2.8.3 1.6.4 2.2 0-.3.1-.7.2-1 .1-.4.2-.7.2-.9l1.1-3.6h1.6l1 3.6c.1.2.1.5.2.9s.1.8.2 1c.1-.5.2-1.2.4-2.2l.9-3.4h1.5l-2 6.9h-1.5zM118.5 20.7c0-.3.1-.5.2-.6.1-.1.3-.2.6-.2s.5.1.6.2c.1.1.2.3.2.6s-.1.4-.2.6c-.1.1-.3.2-.6.2s-.5-.1-.6-.2-.2-.3-.2-.6zm1.6 8.8h-1.5v-6.9h1.5v6.9zM124.8 28.4c.4 0 .7-.1 1.1-.2v1.1c-.2.1-.4.1-.6.2-.3 0-.5.1-.8.1-1.4 0-2.1-.7-2.1-2.2v-3.7h-.9V23l1-.5.5-1.5h.9v1.5h2v1.1h-2v3.7c0 .4.1.6.3.8 0 .3.3.3.6.3zM133.3 29.5h-1.5v-4.3c0-.5-.1-.9-.3-1.2-.2-.3-.6-.4-1-.4-.6 0-1.1.2-1.4.6-.3.4-.4 1-.4 1.9v3.4h-1.5v-9.8h1.5v2.5c0 .4 0 .8-.1 1.3h.1c.2-.3.5-.6.8-.8.4-.2.8-.3 1.3-.3 1.7 0 2.5.8 2.5 2.5v4.6z"/></g><path fill="#139AD6" d="M205.3 14.3h-6.8c-.4 0-.8.4-1 .8l-2.8 17.7c0 .4.2.6.6.6h3.6c.4 0 .6-.2.6-.6l.8-5c0-.4.4-.8 1-.8h2.2c4.6 0 7.2-2.2 7.8-6.6.4-1.8 0-3.4-.8-4.4-1.2-1.1-3-1.7-5.2-1.7m.8 6.6c-.4 2.4-2.2 2.4-4 2.4h-1.2l.8-4.6c0-.2.2-.4.6-.4h.4c1.2 0 2.4 0 3 .8.4.2.4.8.4 1.8"/><g fill="#263B80"><path d="M156.2 14.3h-6.8c-.4 0-.8.4-1 .8l-2.8 17.7c0 .4.2.6.6.6h3.2c.4 0 .8-.4 1-.8l.8-4.8c0-.4.4-.8 1-.8h2.2c4.6 0 7.2-2.2 7.8-6.6.4-1.8 0-3.4-.8-4.4-1.2-1.1-2.8-1.7-5.2-1.7m.8 6.6c-.4 2.4-2.2 2.4-4 2.4h-1l.8-4.6c0-.2.2-.4.6-.4h.4c1.2 0 2.4 0 3 .8.2.2.4.8.2 1.8M176.8 20.7h-3.2c-.2 0-.6.2-.6.4l-.2 1-.2-.4c-.8-1-2.2-1.4-3.8-1.4-3.6 0-6.8 2.8-7.4 6.6-.4 2 .2 3.8 1.2 5 1 1.2 2.4 1.6 4.2 1.6 3 0 4.6-1.8 4.6-1.8l-.2 1c0 .4.2.6.6.6h3c.4 0 .8-.4 1-.8l1.8-11.2c-.2-.2-.6-.6-.8-.6m-4.6 6.4c-.4 1.8-1.8 3.2-3.8 3.2-1 0-1.8-.4-2.2-.8-.4-.6-.6-1.4-.6-2.4.2-1.8 1.8-3.2 3.6-3.2 1 0 1.6.4 2.2.8.6.6.8 1.6.8 2.4"/></g><path fill="#139AD6" d="M225.8 20.7h-3.2c-.2 0-.6.2-.6.4l-.2 1-.2-.4c-.8-1-2.2-1.4-3.8-1.4-3.6 0-6.8 2.8-7.4 6.6-.4 2 .2 3.8 1.2 5 1 1.2 2.4 1.6 4.2 1.6 3 0 4.6-1.8 4.6-1.8l-.2 1c0 .4.2.6.6.6h3c.4 0 .8-.4 1-.8l1.8-11.2c-.2-.2-.4-.6-.8-.6m-4.6 6.4c-.4 1.8-1.8 3.2-3.8 3.2-1 0-1.8-.4-2.2-.8-.4-.6-.6-1.4-.6-2.4.2-1.8 1.8-3.2 3.6-3.2 1 0 1.6.4 2.2.8.8.6 1 1.6.8 2.4"/><path fill="#263B80" d="M194.3 20.7h-3.4c-.4 0-.6.2-.8.4l-4.4 6.8-2-6.4c-.2-.4-.4-.6-1-.6h-3.2c-.4 0-.6.4-.6.8l3.6 10.6-3.4 4.8c-.2.4 0 1 .4 1h3.2c.4 0 .6-.2.8-.4l11-15.9c.6-.5.2-1.1-.2-1.1"/><path fill="#139AD6" d="M229.6 14.7l-2.8 18.1c0 .4.2.6.6.6h2.8c.4 0 .8-.4 1-.8l2.8-17.7c0-.4-.2-.6-.6-.6h-3.2c-.2-.2-.4 0-.6.4"/></svg>