<?xml version="1.0" encoding="utf-8"?>
<!-- Generator: Adobe Illustrator 21.0.2, SVG Export Plug-In . SVG Version: 6.00 Build 0)  -->
<svg version="1.1" id="Layer_1" xmlns="http://www.w3.org/2000/svg" xmlns:xlink="http://www.w3.org/1999/xlink" x="0px" y="0px"
	 viewBox="0 0 2000 509" style="enable-background:new 0 0 2000 509;" xml:space="preserve">
<style type="text/css">
	.st0{fill:#F7F7F5;}
	.st1{fill:none;}
	.st2{fill:#76D750;}
	.st3{font-family:'Enso';}
	.st4{font-size:284px;}
</style>
<circle class="st0" cx="265" cy="254" r="210"/>
<rect x="538.4" y="106.7" class="st1" width="1647.7" height="303.3"/>
<text transform="matrix(1 0 0 1 538.3638 305.5264)" class="st2 st3 st4">sprynamics</text>
<g>
	<path class="st2" d="M232.1,163.1c2.8,8.6,8.4,13.4,16.8,14.6c8.4,1.2,24.5,0.4,48.1-2.2c22.3-3.3,43.2-5.6,62.8-6.9
		c19.6-1.3,37.4-0.1,53.3,3.6c15.9,3.8,29.7,10.7,41.4,20.9c6.4,5.6,11.9,12.4,16.6,20.6c-8.3-42.8-29.6-80.9-59.7-110.1
		c0,0,0,0,0,0c-2.5,2.5-5.3,4.2-8.3,5.2l-54.4,17.6c-3,1-6.2,1.2-9.4,0.5c-3.3-0.6-6.6-1.8-9.9-3.5c-6-4.7-14.6-7.4-25.9-7.9
		c-11.3-0.5-22.8,0.8-34.6,4.1c-10.2,2.8-18.1,5.9-23.7,9.3s-9.5,7.2-11.8,11.3c-2.3,4.1-3.3,8.2-3.1,12.3
		C230.5,156.5,231.1,160.1,232.1,163.1z"/>
	<path class="st2" d="M425.6,372.2c-16.8,11.8-36.5,21.4-59.2,28.7c-16.6,5.4-33.3,8.4-50.1,9.1c-16.8,0.7-32.9-1.1-48.4-5.2
		S238,394,224.8,384.9c-13.2-9.1-24.8-20.4-34.7-33.9c-4.8-4.6-5.8-10.3-3.1-17.4c1.6-5.5,5.6-9.3,12.2-11.4l53.7-17.3
		c6-2,11.8-1.3,17.3,1.9c12.6,9.8,25.5,15.1,38.5,15.9c13,0.8,25.1-0.6,36.2-4.2c17.6-5.7,31-12.8,40.3-21.3
		c9.2-8.5,12.3-17.6,9.2-27.2c-1.6-5-4.1-9.1-7.3-12.2c-3.2-3.1-8-5.4-14.3-6.7c-6.3-1.3-14.6-1.6-24.9-0.7
		c-10.3,0.8-23.2,2.3-38.6,4.5c-13.2,2.1-28.3,3.7-45.1,5c-16.8,1.3-33.3,0.3-49.3-2.9c-16-3.2-30.6-9.5-43.6-18.9
		c-13.1-9.4-22.7-23.7-28.8-42.8c-4.4-13.6-5.7-28.1-4-43.4c1.7-15.3,6.7-30.1,14.9-44.4c8.2-14.3,19.6-27.5,34.4-39.5
		c8.8-7.1,18.9-13.4,30.2-18.8C124.6,70.7,55,154.2,55,254c0,116,94,210,210,210c81.5,0,152.1-46.4,186.9-114.2
		C444.3,357.8,435.5,365.2,425.6,372.2z"/>
</g>
</svg>
